{
	"asset":{
		"generator":"Khronos glTF Blender I/O v4.5.47",
		"version":"2.0"
	},
	"scene":0,
	"scenes":[
		{
			"name":"Scene",
			"nodes":[
				0
			]
		}
	],
	"nodes":[
		{
			"mesh":0,
			"name":"Cone.004",
			"rotation":[
				0,
				-0.44256168603897095,
				0,
				0.8967380523681641
			],
			"scale":[
				0.2311840057373047,
				0.2311840057373047,
				0.2311840057373047
			]
		}
	],
	"materials":[
		{
			"doubleSided":true,
			"name":"Material.004",
			"pbrMetallicRoughness":{
				"baseColorFactor":[
					0.800000011920929,
					0.800000011920929,
					0.800000011920929,
					1
				],
				"metallicFactor":0,
				"roughnessFactor":0.5
			}
		}
	],
	"meshes":[
		{
			"name":"Cone",
			"primitives":[
				{
					"attributes":{
						"POSITION":0,
						"NORMAL":1,
						"TEXCOORD_0":2
					},
					"indices":3
				},
				{
					"attributes":{
						"POSITION":4,
						"NORMAL":5,
						"TEXCOORD_0":6
					},
					"indices":7,
					"material":0
				}
			]
		}
	],
	"accessors":[
		{
			"bufferView":0,
			"componentType":5126,
			"count":150,
			"max":[
				9.254317283630371,
				1.9083847999572754,
				8.063176155090332
			],
			"min":[
				-9.254318237304688,
				-1.9083847999572754,
				-9.539583206176758
			],
			"type":"VEC3"
		},
		{
			"bufferView":1,
			"componentType":5126,
			"count":150,
			"type":"VEC3"
		},
		{
			"bufferView":2,
			"componentType":5126,
			"count":150,
			"type":"VEC2"
		},
		{
			"bufferView":3,
			"componentType":5123,
			"count":150,
			"type":"SCALAR"
		},
		{
			"bufferView":4,
			"componentType":5126,
			"count":60,
			"max":[
				3.7088489532470703,
				4.325558662414551,
				3.867579460144043
			],
			"min":[
				-3.7088494300842285,
				-4.325558662414551,
				-3.867579936981201
			],
			"type":"VEC3"
		},
		{
			"bufferView":5,
			"componentType":5126,
			"count":60,
			"type":"VEC3"
		},
		{
			"bufferView":6,
			"componentType":5126,
			"count":60,
			"type":"VEC2"
		},
		{
			"bufferView":7,
			"componentType":5123,
			"count":60,
			"type":"SCALAR"
		}
	],
	"bufferViews":[
		{
			"buffer":0,
			"byteLength":1800,
			"byteOffset":0,
			"target":34962
		},
		{
			"buffer":0,
			"byteLength":1800,
			"byteOffset":1800,
			"target":34962
		},
		{
			"buffer":0,
			"byteLength":1200,
			"byteOffset":3600,
			"target":34962
		},
		{
			"buffer":0,
			"byteLength":300,
			"byteOffset":4800,
			"target":34963
		},
		{
			"buffer":0,
			"byteLength":720,
			"byteOffset":5100,
			"target":34962
		},
		{
			"buffer":0,
			"byteLength":720,
			"byteOffset":5820,
			"target":34962
		},
		{
			"buffer":0,
			"byteLength":480,
			"byteOffset":6540,
			"target":34962
		},
		{
			"buffer":0,
			"byteLength":120,
			"byteOffset":7020,
			"target":34963
		}
	],
	"buffers":[
		{
			"byteLength":7140,
			"uri":"CC2.bin"
		}
	]
}
