{
	"asset":{
		"generator":"Khronos glTF Blender I/O v4.5.47",
		"version":"2.0"
	},
	"scene":0,
	"scenes":[
		{
			"name":"Scene",
			"nodes":[
				0
			]
		}
	],
	"nodes":[
		{
			"mesh":0,
			"name":"Cube",
			"scale":[
				1.3061795234680176,
				1.3061795234680176,
				1.3061795234680176
			],
			"translation":[
				0,
				1.3977595567703247,
				0
			]
		}
	],
	"materials":[
		{
			"doubleSided":true,
			"name":"Material.001",
			"pbrMetallicRoughness":{
				"baseColorFactor":[
					0.014991184696555138,
					0.18590542674064636,
					0.00875711441040039,
					1
				],
				"metallicFactor":0,
				"roughnessFactor":0.5
			}
		},
		{
			"doubleSided":true,
			"name":"Material.003",
			"pbrMetallicRoughness":{
				"baseColorFactor":[
					0.014991184696555138,
					0.18590542674064636,
					0.00875711441040039,
					1
				],
				"metallicFactor":0,
				"roughnessFactor":0.5
			}
		},
		{
			"doubleSided":true,
			"name":"Material.007",
			"pbrMetallicRoughness":{
				"baseColorFactor":[
					0.014991184696555138,
					0.18590542674064636,
					0.00875711441040039,
					1
				],
				"metallicFactor":0,
				"roughnessFactor":0.5
			}
		}
	],
	"meshes":[
		{
			"name":"Cube.003",
			"primitives":[
				{
					"attributes":{
						"POSITION":0,
						"NORMAL":1,
						"TEXCOORD_0":2
					},
					"indices":3,
					"material":0
				},
				{
					"attributes":{
						"POSITION":4,
						"NORMAL":5,
						"TEXCOORD_0":6
					},
					"indices":7,
					"material":1
				},
				{
					"attributes":{
						"POSITION":8,
						"NORMAL":9,
						"TEXCOORD_0":10
					},
					"indices":11,
					"material":2
				}
			]
		}
	],
	"accessors":[
		{
			"bufferView":0,
			"componentType":5126,
			"count":222,
			"max":[
				1.5500000715255737,
				1.625,
				1.5
			],
			"min":[
				-1.5500000715255737,
				-1,
				-1.8983643054962158
			],
			"type":"VEC3"
		},
		{
			"bufferView":1,
			"componentType":5126,
			"count":222,
			"type":"VEC3"
		},
		{
			"bufferView":2,
			"componentType":5126,
			"count":222,
			"type":"VEC2"
		},
		{
			"bufferView":3,
			"componentType":5123,
			"count":744,
			"type":"SCALAR"
		},
		{
			"bufferView":4,
			"componentType":5126,
			"count":222,
			"max":[
				1.1998393535614014,
				3.311340808868408,
				1.4487818479537964
			],
			"min":[
				-1.4011540412902832,
				0.9525691270828247,
				-1.5673768520355225
			],
			"type":"VEC3"
		},
		{
			"bufferView":5,
			"componentType":5126,
			"count":222,
			"type":"VEC3"
		},
		{
			"bufferView":6,
			"componentType":5126,
			"count":222,
			"type":"VEC2"
		},
		{
			"bufferView":7,
			"componentType":5123,
			"count":744,
			"type":"SCALAR"
		},
		{
			"bufferView":8,
			"componentType":5126,
			"count":228,
			"max":[
				1.1776875257492065,
				4.68726921081543,
				1.3936063051223755
			],
			"min":[
				-1.008017659187317,
				2.6465039253234863,
				-1.2804808616638184
			],
			"type":"VEC3"
		},
		{
			"bufferView":9,
			"componentType":5126,
			"count":228,
			"type":"VEC3"
		},
		{
			"bufferView":10,
			"componentType":5126,
			"count":228,
			"type":"VEC2"
		},
		{
			"bufferView":11,
			"componentType":5123,
			"count":744,
			"type":"SCALAR"
		}
	],
	"bufferViews":[
		{
			"buffer":0,
			"byteLength":2664,
			"byteOffset":0,
			"target":34962
		},
		{
			"buffer":0,
			"byteLength":2664,
			"byteOffset":2664,
			"target":34962
		},
		{
			"buffer":0,
			"byteLength":1776,
			"byteOffset":5328,
			"target":34962
		},
		{
			"buffer":0,
			"byteLength":1488,
			"byteOffset":7104,
			"target":34963
		},
		{
			"buffer":0,
			"byteLength":2664,
			"byteOffset":8592,
			"target":34962
		},
		{
			"buffer":0,
			"byteLength":2664,
			"byteOffset":11256,
			"target":34962
		},
		{
			"buffer":0,
			"byteLength":1776,
			"byteOffset":13920,
			"target":34962
		},
		{
			"buffer":0,
			"byteLength":1488,
			"byteOffset":15696,
			"target":34963
		},
		{
			"buffer":0,
			"byteLength":2736,
			"byteOffset":17184,
			"target":34962
		},
		{
			"buffer":0,
			"byteLength":2736,
			"byteOffset":19920,
			"target":34962
		},
		{
			"buffer":0,
			"byteLength":1824,
			"byteOffset":22656,
			"target":34962
		},
		{
			"buffer":0,
			"byteLength":1488,
			"byteOffset":24480,
			"target":34963
		}
	],
	"buffers":[
		{
			"byteLength":25968,
			"uri":"hobgoblin.bin"
		}
	]
}
