{
	"asset":{
		"generator":"Khronos glTF Blender I/O v4.5.47",
		"version":"2.0"
	},
	"scene":0,
	"scenes":[
		{
			"name":"Scene",
			"nodes":[
				0,
				1,
				2
			]
		}
	],
	"nodes":[
		{
			"mesh":0,
			"name":"Cube.003"
		},
		{
			"mesh":1,
			"name":"Cube.001",
			"scale":[
				1.0695843696594238,
				0.3590143322944641,
				1.0695843696594238
			],
			"translation":[
				0,
				-0.6524528861045837,
				0
			]
		},
		{
			"mesh":2,
			"name":"Cube.002",
			"scale":[
				1.0649060010910034,
				0.14869125187397003,
				1.0649060010910034
			],
			"translation":[
				0,
				0.9757096767425537,
				0
			]
		}
	],
	"materials":[
		{
			"doubleSided":true,
			"name":"Material.008",
			"pbrMetallicRoughness":{
				"baseColorFactor":[
					0.8104085922241211,
					0.7562097311019897,
					0.33484455943107605,
					1
				],
				"metallicFactor":0,
				"roughnessFactor":0.5
			}
		},
		{
			"doubleSided":true,
			"name":"Material",
			"pbrMetallicRoughness":{
				"baseColorFactor":[
					0.15515923500061035,
					0.07233146578073502,
					0.017117680981755257,
					1
				],
				"metallicFactor":0,
				"roughnessFactor":0.5
			}
		},
		{
			"doubleSided":true,
			"name":"Material.004",
			"pbrMetallicRoughness":{
				"baseColorFactor":[
					0.1409907042980194,
					0.1409907042980194,
					0.1409907042980194,
					1
				],
				"metallicFactor":0,
				"roughnessFactor":0.5
			}
		}
	],
	"meshes":[
		{
			"name":"Cube.006",
			"primitives":[
				{
					"attributes":{
						"POSITION":0,
						"NORMAL":1,
						"TEXCOORD_0":2
					},
					"indices":3,
					"material":0
				}
			]
		},
		{
			"name":"Cube.002",
			"primitives":[
				{
					"attributes":{
						"POSITION":4,
						"NORMAL":5,
						"TEXCOORD_0":6
					},
					"indices":7,
					"material":1
				}
			]
		},
		{
			"name":"Cube.003",
			"primitives":[
				{
					"attributes":{
						"POSITION":8,
						"NORMAL":9,
						"TEXCOORD_0":10
					},
					"indices":11,
					"material":2
				}
			]
		}
	],
	"accessors":[
		{
			"bufferView":0,
			"componentType":5126,
			"count":226,
			"max":[
				1.2830100059509277,
				1,
				1
			],
			"min":[
				-1.2830100059509277,
				-1,
				-1.3085460662841797
			],
			"type":"VEC3"
		},
		{
			"bufferView":1,
			"componentType":5126,
			"count":226,
			"type":"VEC3"
		},
		{
			"bufferView":2,
			"componentType":5126,
			"count":226,
			"type":"VEC2"
		},
		{
			"bufferView":3,
			"componentType":5123,
			"count":744,
			"type":"SCALAR"
		},
		{
			"bufferView":4,
			"componentType":5126,
			"count":44,
			"max":[
				1,
				1.9895299673080444,
				1
			],
			"min":[
				-1,
				-1,
				-1
			],
			"type":"VEC3"
		},
		{
			"bufferView":5,
			"componentType":5126,
			"count":44,
			"type":"VEC3"
		},
		{
			"bufferView":6,
			"componentType":5126,
			"count":44,
			"type":"VEC2"
		},
		{
			"bufferView":7,
			"componentType":5123,
			"count":84,
			"type":"SCALAR"
		},
		{
			"bufferView":8,
			"componentType":5126,
			"count":120,
			"max":[
				1,
				1,
				1
			],
			"min":[
				-1,
				-4.705024719238281,
				-1
			],
			"type":"VEC3"
		},
		{
			"bufferView":9,
			"componentType":5126,
			"count":120,
			"type":"VEC3"
		},
		{
			"bufferView":10,
			"componentType":5126,
			"count":120,
			"type":"VEC2"
		},
		{
			"bufferView":11,
			"componentType":5123,
			"count":276,
			"type":"SCALAR"
		}
	],
	"bufferViews":[
		{
			"buffer":0,
			"byteLength":2712,
			"byteOffset":0,
			"target":34962
		},
		{
			"buffer":0,
			"byteLength":2712,
			"byteOffset":2712,
			"target":34962
		},
		{
			"buffer":0,
			"byteLength":1808,
			"byteOffset":5424,
			"target":34962
		},
		{
			"buffer":0,
			"byteLength":1488,
			"byteOffset":7232,
			"target":34963
		},
		{
			"buffer":0,
			"byteLength":528,
			"byteOffset":8720,
			"target":34962
		},
		{
			"buffer":0,
			"byteLength":528,
			"byteOffset":9248,
			"target":34962
		},
		{
			"buffer":0,
			"byteLength":352,
			"byteOffset":9776,
			"target":34962
		},
		{
			"buffer":0,
			"byteLength":168,
			"byteOffset":10128,
			"target":34963
		},
		{
			"buffer":0,
			"byteLength":1440,
			"byteOffset":10296,
			"target":34962
		},
		{
			"buffer":0,
			"byteLength":1440,
			"byteOffset":11736,
			"target":34962
		},
		{
			"buffer":0,
			"byteLength":960,
			"byteOffset":13176,
			"target":34962
		},
		{
			"buffer":0,
			"byteLength":552,
			"byteOffset":14136,
			"target":34963
		}
	],
	"buffers":[
		{
			"byteLength":14688,
			"uri":"player.bin"
		}
	]
}
