{
	"asset":{
		"generator":"Khronos glTF Blender I/O v4.5.47",
		"version":"2.0"
	},
	"scene":0,
	"scenes":[
		{
			"name":"Scene",
			"nodes":[
				0,
				1,
				2,
				3
			]
		}
	],
	"nodes":[
		{
			"mesh":0,
			"name":"Cube.003"
		},
		{
			"mesh":1,
			"name":"Cylinder",
			"rotation":[
				-0.009803691878914833,
				0.23733435571193695,
				-0.04877788573503494,
				0.9701530933380127
			],
			"scale":[
				0.10423638671636581,
				0.9524657130241394,
				0.10423639416694641
			],
			"translation":[
				-1.4490811824798584,
				0.45559364557266235,
				-1.137081265449524
			]
		},
		{
			"mesh":2,
			"name":"Sphere",
			"scale":[
				0.21415476500988007,
				0.21415476500988007,
				0.21415476500988007
			],
			"translation":[
				-1.200842261314392,
				2.19972825050354,
				-1.1140201091766357
			]
		},
		{
			"mesh":3,
			"name":"Cube",
			"scale":[
				0.6363165378570557,
				0.42203813791275024,
				0.2230570763349533
			],
			"translation":[
				0,
				-0.6192333102226257,
				-1.0188668966293335
			]
		}
	],
	"materials":[
		{
			"doubleSided":true,
			"name":"Material.008",
			"pbrMetallicRoughness":{
				"baseColorFactor":[
					0.014991184696555138,
					0.18590542674064636,
					0.00875711441040039,
					1
				],
				"metallicFactor":0,
				"roughnessFactor":0.5
			}
		},
		{
			"doubleSided":true,
			"name":"Material.013",
			"pbrMetallicRoughness":{
				"baseColorFactor":[
					0.21393534541130066,
					0.09329207241535187,
					0.027119923382997513,
					1
				],
				"metallicFactor":0,
				"roughnessFactor":0.5
			}
		},
		{
			"doubleSided":true,
			"name":"Material.001",
			"pbrMetallicRoughness":{
				"baseColorFactor":[
					0.800133466720581,
					0.008690910413861275,
					0.014147661626338959,
					1
				],
				"metallicFactor":0,
				"roughnessFactor":0.5
			}
		},
		{
			"doubleSided":true,
			"name":"Material.002",
			"pbrMetallicRoughness":{
				"baseColorFactor":[
					0.800000011920929,
					0.800000011920929,
					0.800000011920929,
					1
				],
				"metallicFactor":0,
				"roughnessFactor":0.5
			}
		}
	],
	"meshes":[
		{
			"name":"Cube.006",
			"primitives":[
				{
					"attributes":{
						"POSITION":0,
						"NORMAL":1,
						"TEXCOORD_0":2
					},
					"indices":3,
					"material":0
				}
			]
		},
		{
			"name":"Cylinder.001",
			"primitives":[
				{
					"attributes":{
						"POSITION":4,
						"NORMAL":5,
						"TEXCOORD_0":6
					},
					"indices":7,
					"material":1
				}
			]
		},
		{
			"name":"Sphere",
			"primitives":[
				{
					"attributes":{
						"POSITION":8,
						"NORMAL":9,
						"TEXCOORD_0":10
					},
					"indices":11,
					"material":2
				}
			]
		},
		{
			"name":"Cube",
			"primitives":[
				{
					"attributes":{
						"POSITION":12,
						"NORMAL":13,
						"TEXCOORD_0":14
					},
					"indices":15,
					"material":3
				}
			]
		}
	],
	"accessors":[
		{
			"bufferView":0,
			"componentType":5126,
			"count":222,
			"max":[
				1.5500000715255737,
				1.625,
				1.5
			],
			"min":[
				-1.5500000715255737,
				-1,
				-1.8983643054962158
			],
			"type":"VEC3"
		},
		{
			"bufferView":1,
			"componentType":5126,
			"count":222,
			"type":"VEC3"
		},
		{
			"bufferView":2,
			"componentType":5126,
			"count":222,
			"type":"VEC2"
		},
		{
			"bufferView":3,
			"componentType":5123,
			"count":744,
			"type":"SCALAR"
		},
		{
			"bufferView":4,
			"componentType":5126,
			"count":480,
			"max":[
				3.479846954345703,
				2.1832761764526367,
				1.8213263750076294
			],
			"min":[
				-2.629436492919922,
				-1.4074596166610718,
				-1.7811228036880493
			],
			"type":"VEC3"
		},
		{
			"bufferView":5,
			"componentType":5126,
			"count":480,
			"type":"VEC3"
		},
		{
			"bufferView":6,
			"componentType":5126,
			"count":480,
			"type":"VEC2"
		},
		{
			"bufferView":7,
			"componentType":5123,
			"count":720,
			"type":"SCALAR"
		},
		{
			"bufferView":8,
			"componentType":5126,
			"count":1984,
			"max":[
				0.9999997019767761,
				1,
				0.9999993443489075
			],
			"min":[
				-0.9999990463256836,
				-1,
				-1
			],
			"type":"VEC3"
		},
		{
			"bufferView":9,
			"componentType":5126,
			"count":1984,
			"type":"VEC3"
		},
		{
			"bufferView":10,
			"componentType":5126,
			"count":1984,
			"type":"VEC2"
		},
		{
			"bufferView":11,
			"componentType":5123,
			"count":2880,
			"type":"SCALAR"
		},
		{
			"bufferView":12,
			"componentType":5126,
			"count":24,
			"max":[
				1,
				1,
				1
			],
			"min":[
				-1,
				-1,
				-1
			],
			"type":"VEC3"
		},
		{
			"bufferView":13,
			"componentType":5126,
			"count":24,
			"type":"VEC3"
		},
		{
			"bufferView":14,
			"componentType":5126,
			"count":24,
			"type":"VEC2"
		},
		{
			"bufferView":15,
			"componentType":5123,
			"count":36,
			"type":"SCALAR"
		}
	],
	"bufferViews":[
		{
			"buffer":0,
			"byteLength":2664,
			"byteOffset":0,
			"target":34962
		},
		{
			"buffer":0,
			"byteLength":2664,
			"byteOffset":2664,
			"target":34962
		},
		{
			"buffer":0,
			"byteLength":1776,
			"byteOffset":5328,
			"target":34962
		},
		{
			"buffer":0,
			"byteLength":1488,
			"byteOffset":7104,
			"target":34963
		},
		{
			"buffer":0,
			"byteLength":5760,
			"byteOffset":8592,
			"target":34962
		},
		{
			"buffer":0,
			"byteLength":5760,
			"byteOffset":14352,
			"target":34962
		},
		{
			"buffer":0,
			"byteLength":3840,
			"byteOffset":20112,
			"target":34962
		},
		{
			"buffer":0,
			"byteLength":1440,
			"byteOffset":23952,
			"target":34963
		},
		{
			"buffer":0,
			"byteLength":23808,
			"byteOffset":25392,
			"target":34962
		},
		{
			"buffer":0,
			"byteLength":23808,
			"byteOffset":49200,
			"target":34962
		},
		{
			"buffer":0,
			"byteLength":15872,
			"byteOffset":73008,
			"target":34962
		},
		{
			"buffer":0,
			"byteLength":5760,
			"byteOffset":88880,
			"target":34963
		},
		{
			"buffer":0,
			"byteLength":288,
			"byteOffset":94640,
			"target":34962
		},
		{
			"buffer":0,
			"byteLength":288,
			"byteOffset":94928,
			"target":34962
		},
		{
			"buffer":0,
			"byteLength":192,
			"byteOffset":95216,
			"target":34962
		},
		{
			"buffer":0,
			"byteLength":72,
			"byteOffset":95408,
			"target":34963
		}
	],
	"buffers":[
		{
			"byteLength":95480,
			"uri":"mage%20.bin"
		}
	]
}
