{
	"asset":{
		"generator":"Khronos glTF Blender I/O v4.5.47",
		"version":"2.0"
	},
	"scene":0,
	"scenes":[
		{
			"name":"Scene",
			"nodes":[
				0
			]
		}
	],
	"nodes":[
		{
			"mesh":0,
			"name":"Cube"
		}
	],
	"materials":[
		{
			"doubleSided":true,
			"name":"Material.006",
			"pbrMetallicRoughness":{
				"baseColorFactor":[
					0.800000011920929,
					0.800000011920929,
					0.800000011920929,
					1
				],
				"metallicFactor":0,
				"roughnessFactor":0.5
			}
		}
	],
	"meshes":[
		{
			"name":"Cube.011",
			"primitives":[
				{
					"attributes":{
						"POSITION":0,
						"NORMAL":1,
						"TEXCOORD_0":2
					},
					"indices":3,
					"material":0
				}
			]
		}
	],
	"accessors":[
		{
			"bufferView":0,
			"componentType":5126,
			"count":170,
			"max":[
				0.3794160485267639,
				5.846900939941406,
				0.7414230108261108
			],
			"min":[
				-0.9048555493354797,
				-0.5956710577011108,
				-0.5106492042541504
			],
			"type":"VEC3"
		},
		{
			"bufferView":1,
			"componentType":5126,
			"count":170,
			"type":"VEC3"
		},
		{
			"bufferView":2,
			"componentType":5126,
			"count":170,
			"type":"VEC2"
		},
		{
			"bufferView":3,
			"componentType":5123,
			"count":282,
			"type":"SCALAR"
		}
	],
	"bufferViews":[
		{
			"buffer":0,
			"byteLength":2040,
			"byteOffset":0,
			"target":34962
		},
		{
			"buffer":0,
			"byteLength":2040,
			"byteOffset":2040,
			"target":34962
		},
		{
			"buffer":0,
			"byteLength":1360,
			"byteOffset":4080,
			"target":34962
		},
		{
			"buffer":0,
			"byteLength":564,
			"byteOffset":5440,
			"target":34963
		}
	],
	"buffers":[
		{
			"byteLength":6004,
			"uri":"torch.bin"
		}
	]
}
