{
	"asset":{
		"generator":"Khronos glTF Blender I/O v4.5.47",
		"version":"2.0"
	},
	"scene":0,
	"scenes":[
		{
			"name":"Scene",
			"nodes":[
				0,
				1,
				2
			]
		}
	],
	"nodes":[
		{
			"mesh":0,
			"name":"Cube.003"
		},
		{
			"mesh":1,
			"name":"Cube",
			"scale":[
				0.28487423062324524,
				0.28487423062324524,
				0.28487423062324524
			],
			"translation":[
				0.7647354602813721,
				0.8156659007072449,
				-0.0994238406419754
			]
		},
		{
			"mesh":2,
			"name":"Cylinder",
			"rotation":[
				-0.009803691878914833,
				0.23733434081077576,
				-0.04877788573503494,
				0.9701530933380127
			],
			"scale":[
				0.10423638671636581,
				0.9524657130241394,
				0.10423639416694641
			],
			"translation":[
				-1.4490811824798584,
				0.45559364557266235,
				-1.137081265449524
			]
		}
	],
	"materials":[
		{
			"doubleSided":true,
			"name":"Material.008",
			"pbrMetallicRoughness":{
				"baseColorFactor":[
					0.014991184696555138,
					0.18590542674064636,
					0.00875711441040039,
					1
				],
				"metallicFactor":0,
				"roughnessFactor":0.5
			}
		},
		{
			"doubleSided":true,
			"name":"Material.012",
			"pbrMetallicRoughness":{
				"baseColorFactor":[
					0.5170506834983826,
					0.4226740002632141,
					0.27918484807014465,
					1
				],
				"metallicFactor":0,
				"roughnessFactor":0.5
			}
		},
		{
			"doubleSided":true,
			"name":"Material.013",
			"pbrMetallicRoughness":{
				"baseColorFactor":[
					0.21393534541130066,
					0.09329207241535187,
					0.027119923382997513,
					1
				],
				"metallicFactor":0,
				"roughnessFactor":0.5
			}
		}
	],
	"meshes":[
		{
			"name":"Cube.006",
			"primitives":[
				{
					"attributes":{
						"POSITION":0,
						"NORMAL":1,
						"TEXCOORD_0":2
					},
					"indices":3,
					"material":0
				}
			]
		},
		{
			"name":"Cube.008",
			"primitives":[
				{
					"attributes":{
						"POSITION":4,
						"NORMAL":5,
						"TEXCOORD_0":6
					},
					"indices":7,
					"material":1
				}
			]
		},
		{
			"name":"Cylinder.001",
			"primitives":[
				{
					"attributes":{
						"POSITION":8,
						"NORMAL":9,
						"TEXCOORD_0":10
					},
					"indices":11,
					"material":2
				}
			]
		}
	],
	"accessors":[
		{
			"bufferView":0,
			"componentType":5126,
			"count":222,
			"max":[
				1.5500000715255737,
				1.625,
				1.5
			],
			"min":[
				-1.5500000715255737,
				-1,
				-1.8983643054962158
			],
			"type":"VEC3"
		},
		{
			"bufferView":1,
			"componentType":5126,
			"count":222,
			"type":"VEC3"
		},
		{
			"bufferView":2,
			"componentType":5126,
			"count":222,
			"type":"VEC2"
		},
		{
			"bufferView":3,
			"componentType":5123,
			"count":744,
			"type":"SCALAR"
		},
		{
			"bufferView":4,
			"componentType":5126,
			"count":708,
			"max":[
				1.3579387664794922,
				5.155918121337891,
				4.344868183135986
			],
			"min":[
				-6.726874828338623,
				-0.3318142890930176,
				-2.7799999713897705
			],
			"type":"VEC3"
		},
		{
			"bufferView":5,
			"componentType":5126,
			"count":708,
			"type":"VEC3"
		},
		{
			"bufferView":6,
			"componentType":5126,
			"count":708,
			"type":"VEC2"
		},
		{
			"bufferView":7,
			"componentType":5123,
			"count":1080,
			"type":"SCALAR"
		},
		{
			"bufferView":8,
			"componentType":5126,
			"count":478,
			"max":[
				3.479846954345703,
				2.1832761764526367,
				1.8213263750076294
			],
			"min":[
				-2.629436492919922,
				-1.4074596166610718,
				-1.7811228036880493
			],
			"type":"VEC3"
		},
		{
			"bufferView":9,
			"componentType":5126,
			"count":478,
			"type":"VEC3"
		},
		{
			"bufferView":10,
			"componentType":5126,
			"count":478,
			"type":"VEC2"
		},
		{
			"bufferView":11,
			"componentType":5123,
			"count":720,
			"type":"SCALAR"
		}
	],
	"bufferViews":[
		{
			"buffer":0,
			"byteLength":2664,
			"byteOffset":0,
			"target":34962
		},
		{
			"buffer":0,
			"byteLength":2664,
			"byteOffset":2664,
			"target":34962
		},
		{
			"buffer":0,
			"byteLength":1776,
			"byteOffset":5328,
			"target":34962
		},
		{
			"buffer":0,
			"byteLength":1488,
			"byteOffset":7104,
			"target":34963
		},
		{
			"buffer":0,
			"byteLength":8496,
			"byteOffset":8592,
			"target":34962
		},
		{
			"buffer":0,
			"byteLength":8496,
			"byteOffset":17088,
			"target":34962
		},
		{
			"buffer":0,
			"byteLength":5664,
			"byteOffset":25584,
			"target":34962
		},
		{
			"buffer":0,
			"byteLength":2160,
			"byteOffset":31248,
			"target":34963
		},
		{
			"buffer":0,
			"byteLength":5736,
			"byteOffset":33408,
			"target":34962
		},
		{
			"buffer":0,
			"byteLength":5736,
			"byteOffset":39144,
			"target":34962
		},
		{
			"buffer":0,
			"byteLength":3824,
			"byteOffset":44880,
			"target":34962
		},
		{
			"buffer":0,
			"byteLength":1440,
			"byteOffset":48704,
			"target":34963
		}
	],
	"buffers":[
		{
			"byteLength":50144,
			"uri":"shaman.bin"
		}
	]
}
