{
	"asset":{
		"generator":"Khronos glTF Blender I/O v4.5.47",
		"version":"2.0"
	},
	"scene":0,
	"scenes":[
		{
			"name":"Scene",
			"nodes":[
				0
			]
		}
	],
	"nodes":[
		{
			"mesh":0,
			"name":"Cylinder",
			"scale":[
				1,
				0.1085505485534668,
				1
			]
		}
	],
	"materials":[
		{
			"doubleSided":true,
			"name":"Material.022",
			"pbrMetallicRoughness":{
				"baseColorFactor":[
					0.8001724481582642,
					0.5682758092880249,
					0.012699948623776436,
					1
				],
				"metallicFactor":0,
				"roughnessFactor":0.5
			}
		}
	],
	"meshes":[
		{
			"name":"Cylinder.002",
			"primitives":[
				{
					"attributes":{
						"POSITION":0,
						"NORMAL":1,
						"TEXCOORD_0":2
					},
					"indices":3,
					"material":0
				}
			]
		}
	],
	"accessors":[
		{
			"bufferView":0,
			"componentType":5126,
			"count":2614,
			"max":[
				2.181668758392334,
				12.268084526062012,
				2.09708571434021
			],
			"min":[
				-1.8185906410217285,
				-1.4250047206878662,
				-2.3220152854919434
			],
			"type":"VEC3"
		},
		{
			"bufferView":1,
			"componentType":5126,
			"count":2614,
			"type":"VEC3"
		},
		{
			"bufferView":2,
			"componentType":5126,
			"count":2614,
			"type":"VEC2"
		},
		{
			"bufferView":3,
			"componentType":5123,
			"count":5184,
			"type":"SCALAR"
		}
	],
	"bufferViews":[
		{
			"buffer":0,
			"byteLength":31368,
			"byteOffset":0,
			"target":34962
		},
		{
			"buffer":0,
			"byteLength":31368,
			"byteOffset":31368,
			"target":34962
		},
		{
			"buffer":0,
			"byteLength":20912,
			"byteOffset":62736,
			"target":34962
		},
		{
			"buffer":0,
			"byteLength":10368,
			"byteOffset":83648,
			"target":34963
		}
	],
	"buffers":[
		{
			"byteLength":94016,
			"uri":"gold%20pile.bin"
		}
	]
}
